<mxfile host="app.diagrams.net" agent="Mozilla/5.0 (Windows NT 10.0; Win64; x64) AppleWebKit/537.36 (KHTML, like Gecko) Chrome/139.0.0.0 Safari/537.36" version="28.1.0">
  <diagram name="AWS Mad Libs Architecture" id="aws-mad-libs">
    <mxGraphModel dx="2066" dy="1137" grid="1" gridSize="10" guides="1" tooltips="1" connect="1" arrows="1" fold="1" page="1" pageScale="1" pageWidth="1400" pageHeight="1000" math="0" shadow="0">
      <root>
        <mxCell id="0" />
        <mxCell id="1" parent="0" />
        <mxCell id="title" value="AWS Mad Libs - Serverless Architecture" style="text;html=1;strokeColor=none;fillColor=none;align=center;verticalAlign=middle;whiteSpace=wrap;rounded=0;fontSize=24;fontStyle=1;" parent="1" vertex="1">
          <mxGeometry x="275" y="40" width="480" height="40" as="geometry" />
        </mxCell>
        <mxCell id="aws-cloud" value="AWS Cloud" style="points=[[0,0],[0.25,0],[0.5,0],[0.75,0],[1,0],[1,0.25],[1,0.5],[1,0.75],[1,1],[0.75,1],[0.5,1],[0.25,1],[0,1],[0,0.75],[0,0.5],[0,0.25]];outlineConnect=0;gradientColor=none;html=1;whiteSpace=wrap;fontSize=12;fontStyle=0;container=1;pointerEvents=0;collapsible=0;recursiveResize=0;shape=mxgraph.aws4.group;grIcon=mxgraph.aws4.group_aws_cloud_alt;strokeColor=#232F3E;fillColor=none;verticalAlign=top;align=left;spacingLeft=30;fontColor=#232F3E;dashed=0;" parent="1" vertex="1">
          <mxGeometry x="200" y="100" width="630" height="750" as="geometry" />
        </mxCell>
        <mxCell id="aws-region" value="US East 1 (N. Virginia)" style="points=[[0,0],[0.25,0],[0.5,0],[0.75,0],[1,0],[1,0.25],[1,0.5],[1,0.75],[1,1],[0.75,1],[0.5,1],[0.25,1],[0,1],[0,0.75],[0,0.5],[0,0.25]];outlineConnect=0;gradientColor=none;html=1;whiteSpace=wrap;fontSize=12;fontStyle=0;container=1;pointerEvents=0;collapsible=0;recursiveResize=0;shape=mxgraph.aws4.group;grIcon=mxgraph.aws4.group_region;strokeColor=#147EBA;fillColor=none;verticalAlign=top;align=left;spacingLeft=30;fontColor=#147EBA;dashed=0;" parent="aws-cloud" vertex="1">
          <mxGeometry x="40" y="140" width="550" height="580" as="geometry" />
        </mxCell>
        <mxCell id="s3-website" value="" style="sketch=0;points=[[0,0,0],[0.25,0,0],[0.5,0,0],[0.75,0,0],[1,0,0],[0,1,0],[0.25,1,0],[0.5,1,0],[0.75,1,0],[1,1,0],[0,0.25,0],[0,0.5,0],[0,0.75,0],[1,0.25,0],[1,0.5,0],[1,0.75,0]];outlineConnect=0;fontColor=#232F3E;gradientColor=#60A337;gradientDirection=north;fillColor=#277116;strokeColor=#ffffff;dashed=0;verticalLabelPosition=bottom;verticalAlign=top;align=center;html=1;fontSize=12;fontStyle=0;aspect=fixed;shape=mxgraph.aws4.resourceIcon;resIcon=mxgraph.aws4.s3;" parent="aws-region" vertex="1">
          <mxGeometry x="421" y="102" width="78" height="78" as="geometry" />
        </mxCell>
        <mxCell id="s3-website-label" value="Website S3&#xa;Static Hosting&#xa;(React App)" style="text;html=1;strokeColor=none;fillColor=none;align=center;verticalAlign=middle;whiteSpace=wrap;rounded=0;" parent="aws-region" vertex="1">
          <mxGeometry x="410" y="195" width="112" height="45" as="geometry" />
        </mxCell>
        <mxCell id="apigateway" value="" style="sketch=0;points=[[0,0,0],[0.25,0,0],[0.5,0,0],[0.75,0,0],[1,0,0],[0,1,0],[0.25,1,0],[0.5,1,0],[0.75,1,0],[1,1,0],[0,0.25,0],[0,0.5,0],[0,0.75,0],[1,0.25,0],[1,0.5,0],[1,0.75,0]];outlineConnect=0;fontColor=#232F3E;gradientColor=#FF4F8B;gradientDirection=north;fillColor=#BC1356;strokeColor=#ffffff;dashed=0;verticalLabelPosition=bottom;verticalAlign=top;align=center;html=1;fontSize=12;fontStyle=0;aspect=fixed;shape=mxgraph.aws4.resourceIcon;resIcon=mxgraph.aws4.api_gateway;" parent="aws-region" vertex="1">
          <mxGeometry x="240" y="102" width="78" height="78" as="geometry" />
        </mxCell>
        <mxCell id="apigateway-label" value="API Gateway&#xa;REST API&#xa;(/api/*)" style="text;html=1;strokeColor=none;fillColor=none;align=center;verticalAlign=middle;whiteSpace=wrap;rounded=0;" parent="aws-region" vertex="1">
          <mxGeometry x="213" y="185" width="132" height="45" as="geometry" />
        </mxCell>
        <mxCell id="lambda-backend" value="" style="sketch=0;points=[[0,0,0],[0.25,0,0],[0.5,0,0],[0.75,0,0],[1,0,0],[0,1,0],[0.25,1,0],[0.5,1,0],[0.75,1,0],[1,1,0],[0,0.25,0],[0,0.5,0],[0,0.75,0],[1,0.25,0],[1,0.5,0],[1,0.75,0]];outlineConnect=0;fontColor=#232F3E;gradientColor=#F78E04;gradientDirection=north;fillColor=#D05C17;strokeColor=#ffffff;dashed=0;verticalLabelPosition=bottom;verticalAlign=top;align=center;html=1;fontSize=12;fontStyle=0;aspect=fixed;shape=mxgraph.aws4.resourceIcon;resIcon=mxgraph.aws4.lambda;" parent="aws-region" vertex="1">
          <mxGeometry x="240" y="251" width="78" height="78" as="geometry" />
        </mxCell>
        <mxCell id="bedrock" value="" style="sketch=0;points=[[0,0,0],[0.25,0,0],[0.5,0,0],[0.75,0,0],[1,0,0],[0,1,0],[0.25,1,0],[0.5,1,0],[0.75,1,0],[1,1,0],[0,0.25,0],[0,0.5,0],[0,0.75,0],[1,0.25,0],[1,0.5,0],[1,0.75,0]];outlineConnect=0;fontColor=#232F3E;gradientColor=#4AB29A;gradientDirection=north;fillColor=#116D5B;strokeColor=#ffffff;dashed=0;verticalLabelPosition=bottom;verticalAlign=top;align=center;html=1;fontSize=12;fontStyle=0;aspect=fixed;shape=mxgraph.aws4.resourceIcon;resIcon=mxgraph.aws4.bedrock;" parent="aws-region" vertex="1">
          <mxGeometry x="131.5" y="432.34" width="78" height="78" as="geometry" />
        </mxCell>
        <mxCell id="bedrock-label" value="Amazon Bedrock&#xa;AI Models&#xa;(Nova Services)" style="text;html=1;strokeColor=none;fillColor=none;align=center;verticalAlign=middle;whiteSpace=wrap;rounded=0;" parent="aws-region" vertex="1">
          <mxGeometry x="120" y="522.34" width="101" height="45" as="geometry" />
        </mxCell>
        <mxCell id="dynamodb" value="" style="sketch=0;points=[[0,0,0],[0.25,0,0],[0.5,0,0],[0.75,0,0],[1,0,0],[0,1,0],[0.25,1,0],[0.5,1,0],[0.75,1,0],[1,1,0],[0,0.25,0],[0,0.5,0],[0,0.75,0],[1,0.25,0],[1,0.5,0],[1,0.75,0]];outlineConnect=0;fontColor=#232F3E;gradientColor=#4D72F3;gradientDirection=north;fillColor=#3334B9;strokeColor=#ffffff;dashed=0;verticalLabelPosition=bottom;verticalAlign=top;align=center;html=1;fontSize=12;fontStyle=0;aspect=fixed;shape=mxgraph.aws4.resourceIcon;resIcon=mxgraph.aws4.dynamodb;" parent="aws-region" vertex="1">
          <mxGeometry x="251.5" y="432.34" width="78" height="78" as="geometry" />
        </mxCell>
        <mxCell id="dynamodb-label" value="DynamoDB&#xa;Game Sessions&#xa;Player Data" style="text;html=1;strokeColor=none;fillColor=none;align=center;verticalAlign=middle;whiteSpace=wrap;rounded=0;" parent="aws-region" vertex="1">
          <mxGeometry x="224.5" y="522.34" width="139" height="45" as="geometry" />
        </mxCell>
        <mxCell id="s3-images" value="" style="sketch=0;points=[[0,0,0],[0.25,0,0],[0.5,0,0],[0.75,0,0],[1,0,0],[0,1,0],[0.25,1,0],[0.5,1,0],[0.75,1,0],[1,1,0],[0,0.25,0],[0,0.5,0],[0,0.75,0],[1,0.25,0],[1,0.5,0],[1,0.75,0]];outlineConnect=0;fontColor=#232F3E;gradientColor=#60A337;gradientDirection=north;fillColor=#277116;strokeColor=#ffffff;dashed=0;verticalLabelPosition=bottom;verticalAlign=top;align=center;html=1;fontSize=12;fontStyle=0;aspect=fixed;shape=mxgraph.aws4.resourceIcon;resIcon=mxgraph.aws4.s3;" parent="aws-region" vertex="1">
          <mxGeometry x="375" y="432.34" width="78" height="78" as="geometry" />
        </mxCell>
        <mxCell id="s3-images-label" value="Images S3&#xa;AI Generated&#xa;Media Storage" style="text;html=1;strokeColor=none;fillColor=none;align=center;verticalAlign=middle;whiteSpace=wrap;rounded=0;" parent="aws-region" vertex="1">
          <mxGeometry x="345.5" y="522.34" width="139" height="45" as="geometry" />
        </mxCell>
        <mxCell id="cloudwatch" value="" style="sketch=0;points=[[0,0,0],[0.25,0,0],[0.5,0,0],[0.75,0,0],[1,0,0],[0,1,0],[0.25,1,0],[0.5,1,0],[0.75,1,0],[1,1,0],[0,0.25,0],[0,0.5,0],[0,0.75,0],[1,0.25,0],[1,0.5,0],[1,0.75,0]];outlineConnect=0;fontColor=#232F3E;gradientColor=#F34482;gradientDirection=north;fillColor=#BC1356;strokeColor=#ffffff;dashed=0;verticalLabelPosition=bottom;verticalAlign=top;align=center;html=1;fontSize=12;fontStyle=0;aspect=fixed;shape=mxgraph.aws4.resourceIcon;resIcon=mxgraph.aws4.cloudwatch;" parent="aws-region" vertex="1">
          <mxGeometry x="427" y="250" width="78" height="78" as="geometry" />
        </mxCell>
        <mxCell id="cloudwatch-label" value="CloudWatch&#xa;Logs &amp; Monitoring" style="text;html=1;strokeColor=none;fillColor=none;align=center;verticalAlign=middle;whiteSpace=wrap;rounded=0;" parent="aws-region" vertex="1">
          <mxGeometry x="410" y="340" width="119" height="30" as="geometry" />
        </mxCell>
        <mxCell id="parameter-store" value="" style="sketch=0;points=[[0,0,0],[0.25,0,0],[0.5,0,0],[0.75,0,0],[1,0,0],[0,1,0],[0.25,1,0],[0.5,1,0],[0.75,1,0],[1,1,0],[0,0.25,0],[0,0.5,0],[0,0.75,0],[1,0.25,0],[1,0.5,0],[1,0.75,0]];outlineConnect=0;fontColor=#232F3E;gradientColor=#F34482;gradientDirection=north;fillColor=#BC1356;strokeColor=#ffffff;dashed=0;verticalLabelPosition=bottom;verticalAlign=top;align=center;html=1;fontSize=12;fontStyle=0;aspect=fixed;shape=mxgraph.aws4.resourceIcon;resIcon=mxgraph.aws4.systems_manager;" parent="aws-region" vertex="1">
          <mxGeometry x="110" y="250" width="78" height="78" as="geometry" />
        </mxCell>
        <mxCell id="parameter-store-label" value="Parameter Store&#xa;Configuration&#xa;Management" style="text;html=1;strokeColor=none;fillColor=none;align=center;verticalAlign=middle;whiteSpace=wrap;rounded=0;" parent="aws-region" vertex="1">
          <mxGeometry x="99.5" y="340" width="99" height="45" as="geometry" />
        </mxCell>
        <mxCell id="conn4" value="" style="endArrow=classic;html=1;rounded=0;exitX=0.5;exitY=1;exitDx=0;exitDy=0;entryX=0.5;entryY=0;entryDx=0;entryDy=0;exitPerimeter=0;entryPerimeter=0;" parent="aws-region" source="apigateway" target="lambda-backend" edge="1">
          <mxGeometry width="50" height="50" relative="1" as="geometry">
            <mxPoint x="168.9960000000001" y="185.00000000000009" as="sourcePoint" />
            <mxPoint x="93" y="192.34" as="targetPoint" />
          </mxGeometry>
        </mxCell>
        <mxCell id="8I0sBDZZH1bgXY_--XYp-7" value="" style="endArrow=classic;html=1;rounded=0;exitX=0.5;exitY=1;exitDx=0;exitDy=0;entryX=0.5;entryY=0;entryDx=0;entryDy=0;exitPerimeter=0;entryPerimeter=0;" parent="aws-region" source="lambda-backend" target="bedrock" edge="1">
          <mxGeometry width="50" height="50" relative="1" as="geometry">
            <mxPoint x="153" y="332.34" as="sourcePoint" />
            <mxPoint x="198" y="442.34" as="targetPoint" />
          </mxGeometry>
        </mxCell>
        <mxCell id="8I0sBDZZH1bgXY_--XYp-8" value="" style="endArrow=classic;html=1;rounded=0;exitX=0.5;exitY=1;exitDx=0;exitDy=0;entryX=0.5;entryY=0;entryDx=0;entryDy=0;exitPerimeter=0;entryPerimeter=0;" parent="aws-region" source="lambda-backend" target="dynamodb" edge="1">
          <mxGeometry width="50" height="50" relative="1" as="geometry">
            <mxPoint x="284.5" y="287.34" as="sourcePoint" />
            <mxPoint x="251.5" y="427.34" as="targetPoint" />
          </mxGeometry>
        </mxCell>
        <mxCell id="8I0sBDZZH1bgXY_--XYp-10" value="" style="endArrow=classic;html=1;rounded=0;entryX=0.5;entryY=0;entryDx=0;entryDy=0;entryPerimeter=0;" parent="aws-region" edge="1">
          <mxGeometry width="50" height="50" relative="1" as="geometry">
            <mxPoint x="280" y="332" as="sourcePoint" />
            <mxPoint x="417.75" y="432.34" as="targetPoint" />
          </mxGeometry>
        </mxCell>
        <mxCell id="lambda-backend-label" value="Backend API&#xa;Services&#xa;(Lambda Functions)" style="text;html=1;strokeColor=none;fillColor=none;align=center;verticalAlign=middle;whiteSpace=wrap;rounded=0;" parent="aws-region" vertex="1">
          <mxGeometry x="214.5" y="350" width="131" height="45" as="geometry" />
        </mxCell>
        <mxCell id="8I0sBDZZH1bgXY_--XYp-16" value="" style="endArrow=classic;html=1;rounded=0;entryX=0;entryY=0.5;entryDx=0;entryDy=0;entryPerimeter=0;" parent="aws-region" target="cloudwatch" edge="1">
          <mxGeometry width="50" height="50" relative="1" as="geometry">
            <mxPoint x="318" y="290" as="sourcePoint" />
            <mxPoint x="455.75" y="390.3399999999999" as="targetPoint" />
          </mxGeometry>
        </mxCell>
        <mxCell id="parameter-store-conn" value="" style="endArrow=none;html=1;rounded=0;entryX=1;entryY=0.5;entryDx=0;entryDy=0;entryPerimeter=0;exitX=0;exitY=0.5;exitDx=0;exitDy=0;exitPerimeter=0;endFill=0;startArrow=classic;startFill=1;" parent="aws-region" source="lambda-backend" target="parameter-store" edge="1">
          <mxGeometry width="50" height="50" relative="1" as="geometry">
            <mxPoint x="318" y="329" as="sourcePoint" />
            <mxPoint x="534" y="432.34" as="targetPoint" />
          </mxGeometry>
        </mxCell>
        <mxCell id="waf" value="" style="sketch=0;points=[[0,0,0],[0.25,0,0],[0.5,0,0],[0.75,0,0],[1,0,0],[0,1,0],[0.25,1,0],[0.5,1,0],[0.75,1,0],[1,1,0],[0,0.25,0],[0,0.5,0],[0,0.75,0],[1,0.25,0],[1,0.5,0],[1,0.75,0]];outlineConnect=0;fontColor=#232F3E;gradientColor=#F54749;gradientDirection=north;fillColor=#C7131F;strokeColor=#ffffff;dashed=0;verticalLabelPosition=bottom;verticalAlign=top;align=center;html=1;fontSize=12;fontStyle=0;aspect=fixed;shape=mxgraph.aws4.resourceIcon;resIcon=mxgraph.aws4.waf;" parent="aws-cloud" vertex="1">
          <mxGeometry x="120" y="20" width="78" height="78" as="geometry" />
        </mxCell>
        <mxCell id="waf-label" value="AWS WAF" style="text;html=1;strokeColor=none;fillColor=none;align=center;verticalAlign=middle;whiteSpace=wrap;rounded=0;" parent="aws-cloud" vertex="1">
          <mxGeometry x="98.5" y="98" width="121" height="32" as="geometry" />
        </mxCell>
        <mxCell id="waf-cloudfront-conn" value="" style="endArrow=classic;html=1;rounded=0;exitX=1;exitY=0.5;exitDx=0;exitDy=0;entryX=0;entryY=0.5;entryDx=0;entryDy=0;exitPerimeter=0;entryPerimeter=0;" parent="aws-cloud" source="waf" target="cloudfront" edge="1">
          <mxGeometry width="50" height="50" relative="1" as="geometry">
            <mxPoint x="200" y="80" as="sourcePoint" />
            <mxPoint x="280" y="80" as="targetPoint" />
          </mxGeometry>
        </mxCell>
        <mxCell id="iam-label" value="IAM&lt;br&gt;Roles &amp;amp; Policies&lt;div&gt;&lt;br/&gt;&lt;/div&gt;" style="text;html=1;strokeColor=none;fillColor=none;align=center;verticalAlign=middle;whiteSpace=wrap;rounded=0;" parent="aws-cloud" vertex="1">
          <mxGeometry x="406.5" y="102" width="109" height="45" as="geometry" />
        </mxCell>
        <mxCell id="conn1-label" value="HTTPS" style="text;html=1;strokeColor=none;fillColor=none;align=center;verticalAlign=middle;whiteSpace=wrap;rounded=0;fontSize=10;" parent="aws-cloud" vertex="1">
          <mxGeometry x="30" y="70" width="40" height="20" as="geometry" />
        </mxCell>
        <mxCell id="cloudfront" value="" style="sketch=0;points=[[0,0,0],[0.25,0,0],[0.5,0,0],[0.75,0,0],[1,0,0],[0,1,0],[0.25,1,0],[0.5,1,0],[0.75,1,0],[1,1,0],[0,0.25,0],[0,0.5,0],[0,0.75,0],[1,0.25,0],[1,0.5,0],[1,0.75,0]];outlineConnect=0;fontColor=#232F3E;gradientColor=#F78E04;gradientDirection=north;fillColor=#D05C17;strokeColor=#ffffff;dashed=0;verticalLabelPosition=bottom;verticalAlign=top;align=center;html=1;fontSize=12;fontStyle=0;aspect=fixed;shape=mxgraph.aws4.resourceIcon;resIcon=mxgraph.aws4.cloudfront;" parent="aws-cloud" vertex="1">
          <mxGeometry x="280" y="20" width="78" height="78" as="geometry" />
        </mxCell>
        <mxCell id="zxRo1MHsEytoIOUjJ5Jk-1" value="" style="sketch=0;points=[[0,0,0],[0.25,0,0],[0.5,0,0],[0.75,0,0],[1,0,0],[0,1,0],[0.25,1,0],[0.5,1,0],[0.75,1,0],[1,1,0],[0,0.25,0],[0,0.5,0],[0,0.75,0],[1,0.25,0],[1,0.5,0],[1,0.75,0]];outlineConnect=0;fontColor=#232F3E;fillColor=#DD344C;strokeColor=#ffffff;dashed=0;verticalLabelPosition=bottom;verticalAlign=top;align=center;html=1;fontSize=12;fontStyle=0;aspect=fixed;shape=mxgraph.aws4.resourceIcon;resIcon=mxgraph.aws4.identity_and_access_management;" parent="aws-cloud" vertex="1">
          <mxGeometry x="422" y="20" width="78" height="78" as="geometry" />
        </mxCell>
        <mxCell id="cloudfront-label" value="CloudFront (CDN)" style="text;html=1;strokeColor=none;fillColor=none;align=center;verticalAlign=middle;whiteSpace=wrap;rounded=0;" parent="aws-cloud" vertex="1">
          <mxGeometry x="249" y="98" width="140" height="45" as="geometry" />
        </mxCell>
        <mxCell id="users" value="" style="sketch=0;outlineConnect=0;fontColor=#232F3E;gradientColor=none;fillColor=#232F3D;strokeColor=none;dashed=0;verticalLabelPosition=bottom;verticalAlign=top;align=center;html=1;fontSize=12;fontStyle=0;aspect=fixed;pointerEvents=1;shape=mxgraph.aws4.users;" parent="1" vertex="1">
          <mxGeometry x="71" y="120" width="78" height="78" as="geometry" />
        </mxCell>
        <mxCell id="users-label" value="Users&#xa;(Web/Mobile)" style="text;html=1;strokeColor=none;fillColor=none;align=center;verticalAlign=middle;whiteSpace=wrap;rounded=0;" parent="1" vertex="1">
          <mxGeometry x="80" y="210" width="60" height="30" as="geometry" />
        </mxCell>
        <mxCell id="conn1" value="" style="endArrow=classic;html=1;rounded=0;exitX=1;exitY=0.5;exitDx=0;exitDy=0;entryX=0;entryY=0.5;entryDx=0;entryDy=0;entryPerimeter=0;" parent="1" source="users" edge="1" target="waf">
          <mxGeometry width="50" height="50" relative="1" as="geometry">
            <mxPoint x="200" y="300" as="sourcePoint" />
            <mxPoint x="470" y="181" as="targetPoint" />
          </mxGeometry>
        </mxCell>
        <mxCell id="conn2" value="" style="endArrow=classic;html=1;rounded=0;exitX=0.5;exitY=1;exitDx=0;exitDy=0;entryX=0.5;entryY=0;entryDx=0;entryDy=0;entryPerimeter=0;exitPerimeter=0;" parent="1" source="cloudfront" target="s3-website" edge="1">
          <mxGeometry width="50" height="50" relative="1" as="geometry">
            <mxPoint x="500" y="300" as="sourcePoint" />
            <mxPoint x="550" y="250" as="targetPoint" />
          </mxGeometry>
        </mxCell>
        <mxCell id="conn3" value="" style="endArrow=classic;html=1;rounded=0;exitX=0.5;exitY=1;exitDx=0;exitDy=0;entryX=0.5;entryY=0;entryDx=0;entryDy=0;" parent="1" source="cloudfront" target="apigateway" edge="1">
          <mxGeometry width="50" height="50" relative="1" as="geometry">
            <mxPoint x="400" y="300" as="sourcePoint" />
            <mxPoint x="450" y="250" as="targetPoint" />
          </mxGeometry>
        </mxCell>
        <mxCell id="legend-bg" value="" style="rounded=1;whiteSpace=wrap;html=1;fillColor=#f5f5f5;strokeColor=#666666;fontColor=#333333;" parent="1" vertex="1">
          <mxGeometry x="845" y="100" width="200" height="530" as="geometry" />
        </mxCell>
        <mxCell id="legend-title" value="AWS Services Used" style="text;html=1;strokeColor=none;fillColor=none;align=center;verticalAlign=middle;whiteSpace=wrap;rounded=0;fontSize=14;fontStyle=1;" parent="1" vertex="1">
          <mxGeometry x="860" y="110" width="150" height="20" as="geometry" />
        </mxCell>
        <mxCell id="legend-text" value="Global Services:&#xa;• AWS WAF (Web Application Firewall)&#xa;• CloudFront (CDN)&#xa;• IAM (Roles &amp; Policies)&#xa;&#xa;Regional Services:&#xa;• S3 (Static Hosting &amp; Storage)&#xa;• API Gateway (REST API)&#xa;• Lambda (Serverless Compute)&#xa;• DynamoDB (NoSQL Database)&#xa;• Bedrock (AI Models)&#xa;  - Nova Lite (Text)&#xa;  - Nova Canvas (Images)&#xa;  - Nova Reel (Videos)&#xa;• CloudWatch (Monitoring)&#xa;• Parameter Store (Config)&#xa;&#xa;Security Features:&#xa;• DDoS Protection (WAF)&#xa;• Bot Detection (WAF)&#xa;• Rate Limiting (1000/min)&#xa;• OWASP Top 10 Protection&#xa;&#xa;Architecture Benefits:&#xa;• Fully Serverless&#xa;• Auto-scaling&#xa;• Pay-per-use&#xa;• Global CDN&#xa;• AI-powered content&#xa;• Enterprise Security&#xa;&#xa;Data Flow:&#xa;1. Users → WAF → CloudFront&#xa;2. Static assets from S3&#xa;3. API calls to Lambda&#xa;4. AI processing via Bedrock&#xa;5. Data stored in DynamoDB&#xa;6. Media stored in S3&#xa;7. Config from Parameter Store" style="text;html=1;strokeColor=none;fillColor=none;align=left;verticalAlign=top;whiteSpace=wrap;rounded=0;fontSize=10;" parent="1" vertex="1">
          <mxGeometry x="860" y="130" width="180" height="400" as="geometry" />
        </mxCell>
      </root>
    </mxGraphModel>
  </diagram>
</mxfile>
